<svg width="506" height="438" viewBox="0 0 506 438" fill="none" xmlns="http://www.w3.org/2000/svg">
<path d="M258.945 10.548C257.121 9.7608 255.908 11.1411 253.522 11.8282C250.066 12.8581 249.533 14.9346 250.793 16.0055C252.052 17.0763 254.09 16.0692 255.653 16.9141C257.245 17.6467 257.667 19.8294 259.316 20.0994C260.951 20.4256 262.367 18.7359 261.119 15.4656C260.264 13.2996 260.667 11.49 258.945 10.548Z" fill="white"/>
<path d="M254.98 6.83367C255.195 8.70511 254.466 10.4168 253.362 10.6585C252.202 10.8873 251.096 9.55884 250.881 7.6874C250.666 5.81595 251.395 4.1043 252.5 3.86257C253.659 3.63372 254.766 4.96222 254.98 6.83367Z" fill="white"/>
<path d="M263.801 11.2364C262.141 12.1206 261.264 13.6756 261.775 14.7076C262.286 15.7395 264.034 15.9088 265.694 15.0246C267.354 14.1404 268.231 12.5854 267.72 11.5534C267.152 10.5082 265.404 10.3389 263.801 11.2364Z" fill="white"/>
<path d="M260.608 5.76031C260.057 7.67411 258.589 8.93821 257.413 8.59878C256.237 8.25935 255.749 6.41005 256.3 4.49625C256.852 2.58245 258.319 1.31834 259.496 1.65777C260.672 1.99721 261.16 3.84652 260.608 5.76031Z" fill="white"/>
<path d="M261.755 6.07505C260.611 7.58102 260.511 9.33335 261.444 10.0119C262.432 10.7033 264.111 10.0681 265.242 8.61619C266.386 7.11023 266.486 5.3579 265.553 4.6794C264.633 3.94688 262.899 4.56909 261.755 6.07505Z" fill="white"/>
<path d="M46.2196 243.452C44.2649 243.803 44.0158 245.624 42.4067 247.514C40.095 250.282 40.7978 252.307 42.4393 252.504C44.0807 252.701 45.2234 250.735 46.993 250.576C48.7246 250.308 50.2819 251.894 51.8058 251.208C53.3486 250.577 53.5952 248.386 50.7489 246.349C48.8391 245.017 48.1755 243.285 46.2196 243.452Z" fill="white"/>
<path d="M40.8632 242.545C42.0759 243.987 42.4139 245.816 41.6267 246.628C40.787 247.459 39.1304 246.963 37.9177 245.522C36.7049 244.08 36.367 242.251 37.1541 241.439C37.9939 240.608 39.6504 241.104 40.8632 242.545Z" fill="white"/>
<path d="M50.6476 241.343C49.7524 242.997 49.8805 244.777 50.8768 245.355C51.8732 245.933 53.4236 245.108 54.3189 243.454C55.2142 241.8 55.086 240.02 54.0897 239.442C53.0391 238.884 51.4886 239.709 50.6476 241.343Z" fill="white"/>
<path d="M44.9616 238.542C45.5593 240.441 45.0343 242.306 43.8663 242.673C42.6982 243.04 41.2699 241.768 40.6723 239.868C40.0747 237.968 40.5997 236.104 41.7677 235.737C42.9357 235.37 44.364 236.642 44.9616 238.542Z" fill="white"/>
<path d="M46.0912 238.17C45.9693 240.058 46.8539 241.574 48.0068 241.624C49.2127 241.654 50.261 240.197 50.4013 238.363C50.5232 236.475 49.6386 234.959 48.4857 234.909C47.3145 234.807 46.2132 236.283 46.0912 238.17Z" fill="white"/>
<path d="M459.22 322.452C457.265 322.803 457.016 324.624 455.407 326.514C453.095 329.282 453.798 331.307 455.439 331.504C457.081 331.701 458.223 329.735 459.993 329.576C461.725 329.308 463.282 330.894 464.806 330.208C466.349 329.577 466.595 327.386 463.749 325.349C461.839 324.017 461.176 322.285 459.22 322.452Z" fill="white"/>
<path d="M453.863 321.545C455.076 322.987 455.414 324.816 454.627 325.628C453.787 326.459 452.13 325.963 450.918 324.522C449.705 323.08 449.367 321.251 450.154 320.439C450.994 319.608 452.65 320.104 453.863 321.545Z" fill="white"/>
<path d="M463.648 320.343C462.752 321.997 462.881 323.777 463.877 324.355C464.873 324.933 466.424 324.108 467.319 322.454C468.214 320.8 468.086 319.02 467.09 318.442C466.039 317.884 464.489 318.709 463.648 320.343Z" fill="white"/>
<path d="M457.962 317.542C458.559 319.441 458.034 321.306 456.866 321.673C455.698 322.04 454.27 320.768 453.672 318.868C453.075 316.968 453.6 315.104 454.768 314.737C455.936 314.37 457.364 315.642 457.962 317.542Z" fill="white"/>
<path d="M459.091 317.17C458.969 319.058 459.854 320.574 461.007 320.624C462.213 320.654 463.261 319.197 463.401 317.363C463.523 315.475 462.639 313.959 461.486 313.909C460.315 313.807 459.213 315.283 459.091 317.17Z" fill="white"/>
<path d="M339.22 75.4517C337.265 75.8027 337.016 77.6236 335.407 79.5144C333.095 82.2819 333.798 84.3073 335.439 84.5042C337.081 84.701 338.223 82.7355 339.993 82.5763C341.725 82.3076 343.282 83.8941 344.806 83.2081C346.349 82.5768 346.595 80.3863 343.749 78.3494C341.839 77.0165 341.176 75.2855 339.22 75.4517Z" fill="white"/>
<path d="M333.863 74.5454C335.076 75.9868 335.414 77.8162 334.627 78.6279C333.787 79.459 332.13 78.9631 330.918 77.5217C329.705 76.0803 329.367 74.2508 330.154 73.4392C330.994 72.6081 332.65 73.104 333.863 74.5454Z" fill="white"/>
<path d="M343.648 73.3428C342.752 74.9969 342.881 76.7775 343.877 77.3552C344.873 77.9328 346.424 77.1084 347.319 75.4543C348.214 73.8002 348.086 72.0196 347.09 71.4419C346.039 70.8843 344.489 71.7087 343.648 73.3428Z" fill="white"/>
<path d="M337.962 70.5416C338.559 72.4415 338.034 74.3059 336.866 74.6728C335.698 75.0397 334.27 73.7677 333.672 71.8678C333.075 69.968 333.6 68.1035 334.768 67.7366C335.936 67.3697 337.364 68.6417 337.962 70.5416Z" fill="white"/>
<path d="M339.091 70.1705C338.969 72.058 339.854 73.5739 341.007 73.6239C342.213 73.6542 343.261 72.1974 343.401 70.3626C343.523 68.4751 342.639 66.9592 341.486 66.9093C340.315 66.8066 339.213 68.283 339.091 70.1705Z" fill="white"/>
<g opacity="0.96">
<path d="M65.1272 330.33C52.1772 321.126 40.3778 329.898 20.5643 331.289C-8.1927 333.576 -15.8305 348.931 -7.76507 359.413C0.300339 369.895 17.9298 365.419 28.7471 374.639C39.9774 383.029 39.6318 400.81 52.0834 405.677C64.3287 410.959 78.2265 400.103 73.9293 372.434C70.8523 354.059 77.0281 340.575 65.1272 330.33Z" fill="white"/>
<path d="M40.315 294.648C38.8687 309.648 30.3075 321.823 21.2624 321.869C11.8117 321.724 5.3704 309.482 6.81663 294.482C8.26286 279.482 16.8242 267.308 25.8692 267.261C35.32 267.406 41.7612 279.648 40.315 294.648Z" fill="white"/>
<path d="M101.97 343.824C87.5057 347.969 78.0488 358.671 80.3262 367.599C82.6036 376.526 95.9956 380.77 110.46 376.624C124.924 372.478 134.381 361.777 132.103 352.849C129.408 343.724 116.016 339.48 101.97 343.824Z" fill="white"/>
<path d="M86.1401 295.65C78.6301 309.702 65.0373 317.141 56.4012 312.521C47.765 307.901 47.0359 292.618 54.5459 278.566C62.0558 264.513 75.6487 257.074 84.2849 261.694C92.921 266.314 93.6501 281.597 86.1401 295.65Z" fill="white"/>
<path d="M94.5854 300.026C83.1173 309.897 79.4083 323.44 85.5779 330.307C92.1558 337.368 106.35 335.201 117.619 325.73C129.087 315.859 132.796 302.316 126.627 295.449C120.656 288.182 106.053 290.155 94.5854 300.026Z" fill="white"/>
</g>
<g opacity="0.96">
<path d="M423.164 175.33C436.114 166.126 447.913 174.898 467.726 176.289C496.484 178.576 504.121 193.931 496.056 204.413C487.99 214.895 470.361 210.419 459.544 219.639C448.313 228.029 448.659 245.81 436.207 250.677C423.962 255.959 410.064 245.103 414.362 217.434C417.439 199.059 411.263 185.575 423.164 175.33Z" fill="white"/>
<path d="M447.976 139.648C449.422 154.648 457.983 166.823 467.028 166.869C476.479 166.724 482.92 154.482 481.474 139.482C480.028 124.482 471.467 112.308 462.422 112.261C452.971 112.406 446.53 124.648 447.976 139.648Z" fill="white"/>
<path d="M386.321 188.824C400.785 192.969 410.242 203.671 407.965 212.599C405.687 221.526 392.295 225.77 377.831 221.624C363.367 217.478 353.91 206.777 356.188 197.849C358.883 188.724 372.275 184.48 386.321 188.824Z" fill="white"/>
<path d="M402.151 140.65C409.661 154.702 423.254 162.141 431.89 157.521C440.526 152.901 441.255 137.618 433.745 123.566C426.235 109.513 412.642 102.074 404.006 106.694C395.37 111.314 394.641 126.597 402.151 140.65Z" fill="white"/>
<path d="M393.705 145.026C405.174 154.897 408.883 168.44 402.713 175.307C396.135 182.368 381.941 180.201 370.672 170.73C359.204 160.859 355.495 147.316 361.664 140.449C367.635 133.182 382.237 135.155 393.705 145.026Z" fill="white"/>
</g>
<path d="M69.3884 426.14C67.41 426.313 66.9976 428.105 65.2244 429.842C62.6725 432.39 63.1897 434.471 64.8067 434.815C66.4236 435.159 67.739 433.304 69.5158 433.306C71.2645 433.194 72.6724 434.915 74.2519 434.369C75.8454 433.88 76.2887 431.72 73.6378 429.435C71.8561 427.935 71.3513 426.151 69.3884 426.14Z" fill="white"/>
<path d="M64.1356 424.754C65.2133 426.299 65.3848 428.152 64.5277 428.889C63.6163 429.641 62.0113 428.998 60.9336 427.453C59.8558 425.908 59.6843 424.055 60.5415 423.318C61.4528 422.566 63.0579 423.209 64.1356 424.754Z" fill="white"/>
<path d="M73.9887 424.44C72.9478 426.006 72.9148 427.791 73.8549 428.456C74.795 429.121 76.4136 428.44 77.4544 426.874C78.4953 425.307 78.5283 423.522 77.5882 422.857C76.5922 422.207 74.9737 422.888 73.9887 424.44Z" fill="white"/>
<path d="M68.5786 421.137C69.0023 423.083 68.3113 424.892 67.1149 425.152C65.9185 425.412 64.6108 424.017 64.1871 422.071C63.7633 420.124 64.4544 418.315 65.6508 418.055C66.8471 417.795 68.1548 419.191 68.5786 421.137Z" fill="white"/>
<path d="M69.7371 420.869C69.4453 422.738 70.1896 424.327 71.3332 424.481C72.5314 424.62 73.707 423.264 74.0122 421.449C74.304 419.581 73.5597 417.991 72.416 417.837C71.2589 417.629 70.0289 419 69.7371 420.869Z" fill="white"/>
<path d="M51.9778 193.299C51.0851 192.651 50.2594 193.252 48.8826 193.334C46.884 193.472 46.3425 194.533 46.8951 195.267C47.4476 196 48.675 195.702 49.4196 196.35C50.1934 196.941 50.1566 198.175 51.0177 198.522C51.8642 198.898 52.8371 198.154 52.5587 196.23C52.3582 194.951 52.7968 194.02 51.9778 193.299Z" fill="white"/>
<path d="M50.2804 190.804C50.1692 191.844 49.5659 192.684 48.9378 192.68C48.2816 192.663 47.8432 191.809 47.9544 190.768C48.0656 189.728 48.6689 188.888 49.297 188.892C49.9532 188.908 50.3917 189.763 50.2804 190.804Z" fill="white"/>
<path d="M54.5264 194.263C53.519 194.541 52.8546 195.277 53.0063 195.898C53.1581 196.52 54.085 196.824 55.0924 196.547C56.0997 196.269 56.7641 195.533 56.6124 194.911C56.4318 194.276 55.5049 193.972 54.5264 194.263Z" fill="white"/>
<path d="M53.4619 190.906C52.9303 191.877 51.981 192.384 51.3846 192.057C50.7882 191.729 50.7486 190.668 51.2802 189.697C51.8119 188.727 52.7611 188.22 53.3575 188.547C53.9539 188.874 53.9935 189.936 53.4619 190.906Z" fill="white"/>
<path d="M54.0452 191.216C53.2417 191.894 52.9744 192.831 53.3979 193.313C53.8496 193.808 54.8368 193.667 55.6262 193.018C56.4296 192.341 56.697 191.403 56.2735 190.922C55.8641 190.413 54.8487 190.539 54.0452 191.216Z" fill="white"/>
<path d="M330.77 16.5047C329.878 15.8562 329.052 16.4569 327.675 16.5392C325.677 16.6773 325.135 17.7381 325.688 18.4718C326.24 19.2054 327.468 18.9073 328.212 19.5554C328.986 20.1461 328.949 21.3806 329.81 21.7275C330.657 22.1031 331.63 21.3593 331.351 19.4348C331.151 18.1566 331.589 17.2247 330.77 16.5047Z" fill="white"/>
<path d="M329.073 14.009C328.962 15.0496 328.359 15.8888 327.73 15.8855C327.074 15.8686 326.636 15.0139 326.747 13.9733C326.858 12.9327 327.461 12.0935 328.09 12.0968C328.746 12.1136 329.184 12.9684 329.073 14.009Z" fill="white"/>
<path d="M333.319 17.4682C332.312 17.7457 331.647 18.482 331.799 19.1036C331.951 19.7252 332.878 20.0295 333.885 19.7521C334.892 19.4746 335.557 18.7383 335.405 18.1167C335.224 17.4811 334.298 17.1767 333.319 17.4682Z" fill="white"/>
<path d="M332.254 14.1116C331.723 15.082 330.774 15.5888 330.177 15.2617C329.581 14.9347 329.541 13.8729 330.073 12.9025C330.604 11.9321 331.554 11.4253 332.15 11.7523C332.746 12.0794 332.786 13.1412 332.254 14.1116Z" fill="white"/>
<path d="M332.838 14.4216C332.034 15.0988 331.767 16.0365 332.19 16.5178C332.642 17.0129 333.629 16.8727 334.419 16.2231C335.222 15.5458 335.49 14.6081 335.066 14.1268C334.657 13.6179 333.641 13.7444 332.838 14.4216Z" fill="white"/>
<path d="M33.6819 326.538C32.5831 326.637 32.3567 327.632 31.3742 328.601C29.9603 330.02 30.2508 331.175 31.1496 331.364C32.0485 331.552 32.7764 330.52 33.7635 330.518C34.7349 330.454 35.5196 331.407 36.3963 331.102C37.2808 330.828 37.5238 329.627 36.0477 328.362C35.0555 327.531 34.7724 326.541 33.6819 326.538Z" fill="white"/>
<path d="M30.7616 325.776C31.3626 326.632 31.4607 327.661 30.9856 328.072C30.4805 328.491 29.5878 328.136 28.9867 327.28C28.3857 326.423 28.2876 325.394 28.7627 324.983C29.2679 324.564 30.1605 324.919 30.7616 325.776Z" fill="white"/>
<path d="M36.235 325.586C35.6591 326.458 35.6435 327.449 36.1668 327.817C36.6901 328.186 37.5882 327.805 38.1641 326.933C38.74 326.061 38.7556 325.069 38.2324 324.701C37.678 324.342 36.7799 324.722 36.235 325.586Z" fill="white"/>
<path d="M33.2245 323.759C33.4628 324.84 33.0816 325.846 32.4174 325.992C31.7531 326.138 31.0245 325.365 30.7861 324.284C30.5478 323.204 30.929 322.198 31.5932 322.051C32.2575 321.905 32.9861 322.679 33.2245 323.759Z" fill="white"/>
<path d="M33.8677 323.609C33.7084 324.647 34.1243 325.529 34.7599 325.613C35.4257 325.688 36.0768 324.933 36.2436 323.925C36.4029 322.886 35.987 322.004 35.3514 321.92C34.7082 321.806 34.0269 322.57 33.8677 323.609Z" fill="white"/>
<path d="M484.066 389.743C485.165 389.842 485.391 390.838 486.373 391.806C487.787 393.225 487.497 394.38 486.598 394.569C485.699 394.758 484.971 393.725 483.984 393.723C483.013 393.659 482.228 394.613 481.351 394.307C480.467 394.033 480.224 392.832 481.7 391.567C482.692 390.736 482.975 389.746 484.066 389.743Z" fill="white"/>
<path d="M486.986 388.981C486.385 389.838 486.287 390.866 486.762 391.277C487.267 391.696 488.16 391.341 488.761 390.485C489.362 389.628 489.46 388.599 488.985 388.188C488.48 387.769 487.587 388.124 486.986 388.981Z" fill="white"/>
<path d="M481.513 388.791C482.088 389.663 482.104 390.655 481.581 391.023C481.058 391.391 480.159 391.01 479.584 390.138C479.008 389.266 478.992 388.275 479.515 387.906C480.07 387.547 480.968 387.928 481.513 388.791Z" fill="white"/>
<path d="M484.523 386.964C484.285 388.045 484.666 389.051 485.33 389.197C485.994 389.344 486.723 388.57 486.961 387.49C487.2 386.409 486.819 385.403 486.154 385.257C485.49 385.11 484.761 385.884 484.523 386.964Z" fill="white"/>
<path d="M483.88 386.814C484.039 387.852 483.623 388.734 482.988 388.818C482.322 388.894 481.671 388.138 481.504 387.13C481.345 386.091 481.761 385.209 482.396 385.125C483.039 385.012 483.721 385.775 483.88 386.814Z" fill="white"/>
<path d="M200.68 47.5397C199.583 47.6649 199.381 48.6656 198.421 49.6566C197.041 51.1088 197.359 52.2567 198.262 52.4242C199.165 52.5917 199.868 51.5426 200.855 51.5172C201.825 51.4299 202.632 52.3648 203.501 52.0386C204.379 51.7435 204.593 50.5378 203.088 49.3073C202.076 48.5005 201.77 47.5171 200.68 47.5397Z" fill="white"/>
<path d="M197.742 46.8469C198.363 47.6892 198.485 48.7154 198.02 49.1375C197.525 49.5684 196.624 49.2345 196.003 48.3923C195.382 47.55 195.26 46.5237 195.725 46.1017C196.22 45.6708 197.121 46.0046 197.742 46.8469Z" fill="white"/>
<path d="M203.209 46.528C202.654 47.4132 202.662 48.405 203.194 48.7607C203.726 49.1164 204.615 48.7144 205.17 47.8292C205.725 46.944 205.717 45.9522 205.185 45.5965C204.623 45.25 203.734 45.652 203.209 46.528Z" fill="white"/>
<path d="M200.157 44.7729C200.42 45.8475 200.063 46.8625 199.402 47.0244C198.742 47.1862 197.995 46.4303 197.731 45.3557C197.468 44.2811 197.825 43.2661 198.486 43.1042C199.146 42.9423 199.893 43.6983 200.157 44.7729Z" fill="white"/>
<path d="M200.796 44.6072C200.661 45.6493 201.098 46.5213 201.735 46.5899C202.403 46.6496 203.036 45.8792 203.179 44.867C203.314 43.8249 202.877 42.9529 202.24 42.8843C201.594 42.7857 200.931 43.5651 200.796 44.6072Z" fill="white"/>
<path d="M496.275 248.633C494.52 249.561 494.836 251.372 493.878 253.662C492.518 257.002 493.803 258.718 495.427 258.406C497.05 258.094 497.541 255.874 499.179 255.185C500.746 254.402 502.712 255.44 503.956 254.323C505.233 253.252 504.802 251.091 501.471 250.016C499.247 249.327 498.088 247.879 496.275 248.633Z" fill="white"/>
<path d="M490.897 249.398C492.491 250.403 493.369 252.043 492.866 253.055C492.319 254.102 490.59 254.134 488.996 253.129C487.402 252.125 486.524 250.485 487.027 249.472C487.574 248.425 489.303 248.394 490.897 249.398Z" fill="white"/>
<path d="M499.852 245.277C499.502 247.125 500.166 248.782 501.291 249.03C502.416 249.277 503.642 248.02 503.992 246.172C504.342 244.324 503.678 242.667 502.553 242.419C501.383 242.208 500.156 243.465 499.852 245.277Z" fill="white"/>
<path d="M493.584 244.338C494.731 245.966 494.798 247.902 493.796 248.606C492.795 249.311 491.048 248.534 489.901 246.906C488.754 245.277 488.687 243.342 489.688 242.637C490.689 241.932 492.437 242.71 493.584 244.338Z" fill="white"/>
<path d="M494.547 243.641C495.005 245.476 496.308 246.651 497.422 246.348C498.58 246.01 499.136 244.303 498.711 242.513C498.253 240.678 496.95 239.503 495.836 239.806C494.689 240.064 494.089 241.805 494.547 243.641Z" fill="white"/>
</svg>
