<svg xmlns="http://www.w3.org/2000/svg" aria-hidden="true" overflow="hidden" style="position:absolute;width:0;height:0">
  <defs>
    <symbol id="icon-instagram" viewBox="0 0 32 32">
      <path d="M16 8.923a7.075 7.075 0 0 0-6.539 4.369 7.075 7.075 0 0 0 9.246 9.246 7.082 7.082 0 0 0 4.369-6.539 7.077 7.077 0 0 0-7.077-7.077zm0 12.308a5.228 5.228 0 0 1-4.833-3.229 5.225 5.225 0 0 1 1.134-5.7 5.228 5.228 0 0 1 8.047.793c.575.86.882 1.871.882 2.906-.004 1.386-.556 2.714-1.537 3.694s-2.308 1.532-3.694 1.537zM22.769.923H9.231A8.307 8.307 0 0 0 .924 9.23v13.538a8.307 8.307 0 0 0 8.307 8.307h13.538a8.307 8.307 0 0 0 8.307-8.307V9.23A8.307 8.307 0 0 0 22.769.923zm6.462 21.846a6.46 6.46 0 0 1-6.462 6.462H9.231a6.46 6.46 0 0 1-6.462-6.462V9.231a6.46 6.46 0 0 1 6.462-6.462h13.538a6.46 6.46 0 0 1 6.462 6.462v13.538zM25.538 8a1.54 1.54 0 0 1-2.626 1.089 1.535 1.535 0 0 1-.333-1.677 1.542 1.542 0 0 1 1.422-.949 1.538 1.538 0 0 1 1.539 1.539z"/>
    </symbol>
    <symbol id="icon-Group-4620111" viewBox="0 0 35 32">
      <path d="M21.851 9.773c-0.012 0.126-0.089 0.264-0.265 0.404l-5.19 4.118c-0.369 0.293-1.246 0.361-1.246-0.328v-7.62c0-0.624 0.941-0.778 1.317-0.524l5.19 3.502c0.198 0.134 0.242 0.294 0.194 0.448zM27.733 11.938c-0.548 13.146-22.702 10.423-20.298-3.416 1.009-5.807 5.83-8.861 11.128-8.493 5.963 0.414 9.061 5.839 9.169 11.822 0 0.015-0.010 0.028-0.012 0.042 0.002 0.016 0.013 0.027 0.012 0.045zM26.622 12.108c-0.090-4.235-1.592-8.809-5.467-10.629-5.136-2.413-11.186 0.433-12.491 6.296-1.167 5.244 1.429 9.894 6.178 11.576 5.063 1.793 11.503-1.028 11.78-7.243zM3.507 29.77v0.523h-2.427v-0.523h2.427zM1.207 25.44v4.853h-0.643v-4.853h0.643zM5.647 30.36c-0.251 0-0.479-0.042-0.683-0.127-0.202-0.087-0.377-0.208-0.523-0.363-0.144-0.156-0.256-0.34-0.333-0.553s-0.117-0.447-0.117-0.7v-0.14c0-0.293 0.043-0.554 0.13-0.783 0.087-0.231 0.204-0.427 0.353-0.587s0.318-0.281 0.507-0.363 0.384-0.123 0.587-0.123c0.258 0 0.48 0.044 0.667 0.133 0.189 0.089 0.343 0.213 0.463 0.373 0.12 0.158 0.209 0.344 0.267 0.56 0.058 0.213 0.087 0.447 0.087 0.7v0.277h-2.693v-0.503h2.077v-0.047c-0.010-0.17-0.045-0.329-0.104-0.477l0.004 0.010c-0.056-0.151-0.144-0.276-0.267-0.373s-0.289-0.147-0.5-0.147c-0.14 0-0.269 0.030-0.387 0.090-0.118 0.058-0.219 0.144-0.303 0.26s-0.15 0.257-0.197 0.423c-0.047 0.167-0.070 0.359-0.070 0.577v0.14c0 0.171 0.023 0.332 0.070 0.483 0.049 0.149 0.119 0.28 0.21 0.393 0.093 0.113 0.206 0.202 0.337 0.267 0.133 0.064 0.284 0.097 0.453 0.097 0.218 0 0.402-0.044 0.553-0.133s0.283-0.208 0.397-0.357l0.373 0.297c-0.078 0.118-0.177 0.23-0.297 0.337s-0.268 0.193-0.443 0.26c-0.173 0.067-0.379 0.1-0.617 0.1zM9.897 29.677v-1.857c0-0.142-0.029-0.266-0.087-0.37-0.056-0.107-0.14-0.189-0.253-0.247s-0.253-0.087-0.42-0.087c-0.156 0-0.292 0.027-0.41 0.080-0.116 0.053-0.207 0.123-0.273 0.21-0.064 0.087-0.097 0.18-0.097 0.28h-0.617c0-0.129 0.033-0.257 0.1-0.383s0.162-0.241 0.287-0.343c0.127-0.104 0.278-0.187 0.453-0.247 0.178-0.062 0.376-0.093 0.593-0.093 0.262 0 0.493 0.044 0.693 0.133 0.202 0.089 0.36 0.223 0.473 0.403 0.116 0.178 0.173 0.401 0.173 0.67v1.68c0 0.12 0.010 0.248 0.030 0.383 0.022 0.136 0.054 0.252 0.097 0.35v0.053h-0.643c-0.031-0.071-0.056-0.166-0.073-0.283-0.018-0.12-0.027-0.231-0.027-0.333zM10.003 28.107l0.007 0.433h-0.623c-0.176 0-0.332 0.014-0.47 0.043-0.138 0.027-0.253 0.068-0.347 0.123s-0.164 0.126-0.213 0.21c-0.049 0.082-0.073 0.179-0.073 0.29 0 0.113 0.026 0.217 0.077 0.31s0.128 0.168 0.23 0.223c0.104 0.053 0.232 0.080 0.383 0.080 0.189 0 0.356-0.040 0.5-0.12s0.259-0.178 0.343-0.293c0.087-0.116 0.133-0.228 0.14-0.337l0.263 0.297c-0.016 0.093-0.058 0.197-0.127 0.31s-0.161 0.222-0.277 0.327c-0.113 0.102-0.249 0.188-0.407 0.257-0.156 0.067-0.331 0.1-0.527 0.1-0.244 0-0.459-0.048-0.643-0.143-0.182-0.096-0.324-0.223-0.427-0.383-0.1-0.162-0.15-0.343-0.15-0.543 0-0.193 0.038-0.363 0.113-0.51 0.076-0.149 0.184-0.272 0.327-0.37 0.142-0.1 0.313-0.176 0.513-0.227s0.423-0.077 0.67-0.077h0.717zM12.1 27.253v3.040h-0.617v-3.607h0.6l0.017 0.567zM13.227 26.667l-0.003 0.573c-0.043-0.010-0.093-0.017-0.144-0.020l-0.002-0c-0.044-0.004-0.096-0.007-0.153-0.007-0.142 0-0.268 0.022-0.377 0.067s-0.201 0.107-0.277 0.187-0.136 0.176-0.18 0.287c-0.042 0.109-0.070 0.229-0.083 0.36l-0.173 0.1c0-0.218 0.021-0.422 0.063-0.613 0.044-0.191 0.112-0.36 0.203-0.507 0.091-0.149 0.207-0.264 0.347-0.347 0.142-0.084 0.311-0.127 0.507-0.127 0.044 0 0.096 0.006 0.153 0.017 0.058 0.009 0.098 0.019 0.12 0.030zM14.413 27.457v2.837h-0.617v-3.607h0.583l0.033 0.77zM14.267 28.353l-0.257-0.010c0.002-0.247 0.039-0.474 0.11-0.683 0.071-0.211 0.171-0.394 0.3-0.55s0.282-0.276 0.46-0.36c0.18-0.087 0.379-0.13 0.597-0.13 0.178 0 0.338 0.024 0.48 0.073 0.142 0.047 0.263 0.122 0.363 0.227 0.102 0.104 0.18 0.24 0.233 0.407 0.053 0.164 0.080 0.366 0.080 0.603v2.363h-0.62v-2.37c0-0.189-0.028-0.34-0.083-0.453-0.056-0.116-0.137-0.199-0.243-0.25-0.107-0.053-0.238-0.080-0.393-0.080-0.153 0-0.293 0.032-0.42 0.097-0.124 0.064-0.232 0.153-0.323 0.267-0.089 0.113-0.159 0.243-0.21 0.39-0.049 0.144-0.073 0.298-0.073 0.46zM19.877 27.403v2.89h-0.62v-3.607h0.587l0.033 0.717zM19.75 28.353l-0.287-0.010c0.002-0.247 0.034-0.474 0.097-0.683 0.062-0.211 0.154-0.394 0.277-0.55s0.274-0.276 0.457-0.36c0.182-0.087 0.393-0.13 0.633-0.13 0.169 0 0.324 0.024 0.467 0.073 0.142 0.047 0.266 0.121 0.37 0.223s0.186 0.233 0.243 0.393 0.087 0.353 0.087 0.58v2.403h-0.617v-2.373c0-0.189-0.032-0.34-0.097-0.453-0.062-0.113-0.151-0.196-0.267-0.247-0.116-0.053-0.251-0.080-0.407-0.080-0.182 0-0.334 0.032-0.457 0.097s-0.22 0.153-0.293 0.267c-0.073 0.113-0.127 0.243-0.16 0.39-0.031 0.144-0.047 0.298-0.047 0.46zM22.087 28.013l-0.413 0.127c0.002-0.198 0.034-0.388 0.097-0.57 0.064-0.182 0.157-0.344 0.277-0.487 0.122-0.142 0.272-0.254 0.45-0.337 0.178-0.084 0.381-0.127 0.61-0.127 0.193 0 0.364 0.026 0.513 0.077 0.151 0.051 0.278 0.13 0.38 0.237 0.104 0.104 0.183 0.239 0.237 0.403s0.080 0.36 0.080 0.587v2.37h-0.62v-2.377c0-0.202-0.032-0.359-0.097-0.47-0.062-0.113-0.151-0.192-0.267-0.237-0.113-0.047-0.249-0.070-0.407-0.070-0.136 0-0.256 0.023-0.36 0.070s-0.192 0.111-0.263 0.193c-0.071 0.080-0.126 0.172-0.163 0.277-0.036 0.104-0.053 0.216-0.053 0.333zM25.087 28.53v-0.077c0-0.26 0.038-0.501 0.113-0.723 0.076-0.224 0.184-0.419 0.327-0.583 0.142-0.167 0.314-0.296 0.517-0.387 0.202-0.093 0.429-0.14 0.68-0.14 0.253 0 0.481 0.047 0.683 0.14 0.204 0.091 0.378 0.22 0.52 0.387 0.144 0.164 0.254 0.359 0.33 0.583 0.076 0.222 0.113 0.463 0.113 0.723v0.077c0 0.26-0.038 0.501-0.113 0.723s-0.186 0.417-0.33 0.583c-0.142 0.164-0.314 0.293-0.517 0.387-0.2 0.091-0.427 0.137-0.68 0.137s-0.481-0.046-0.683-0.137c-0.202-0.093-0.376-0.222-0.52-0.387-0.142-0.167-0.251-0.361-0.327-0.583s-0.113-0.463-0.113-0.723zM25.703 28.453v0.077c0 0.18 0.021 0.35 0.063 0.51 0.042 0.158 0.106 0.298 0.19 0.42 0.087 0.122 0.194 0.219 0.323 0.29 0.129 0.069 0.279 0.103 0.45 0.103 0.169 0 0.317-0.034 0.443-0.103 0.129-0.071 0.236-0.168 0.32-0.29s0.148-0.262 0.19-0.42c0.044-0.16 0.067-0.33 0.067-0.51v-0.077c0-0.178-0.022-0.346-0.067-0.503-0.042-0.16-0.107-0.301-0.193-0.423-0.084-0.124-0.191-0.222-0.32-0.293-0.127-0.071-0.276-0.107-0.447-0.107-0.169 0-0.318 0.036-0.447 0.107-0.127 0.071-0.233 0.169-0.32 0.293-0.084 0.122-0.148 0.263-0.19 0.423-0.042 0.158-0.063 0.326-0.063 0.503zM29.76 27.253v3.040h-0.617v-3.607h0.6l0.017 0.567zM30.887 26.667l-0.003 0.573c-0.043-0.010-0.093-0.017-0.144-0.020l-0.002-0c-0.044-0.004-0.096-0.007-0.153-0.007-0.142 0-0.268 0.022-0.377 0.067s-0.201 0.107-0.277 0.187c-0.076 0.080-0.136 0.176-0.18 0.287-0.042 0.109-0.070 0.229-0.083 0.36l-0.173 0.1c0-0.218 0.021-0.422 0.063-0.613 0.044-0.191 0.112-0.36 0.203-0.507 0.091-0.149 0.207-0.264 0.347-0.347 0.142-0.084 0.311-0.127 0.507-0.127 0.044 0 0.096 0.006 0.153 0.017 0.058 0.009 0.098 0.019 0.12 0.030zM32.887 30.36c-0.251 0-0.479-0.042-0.683-0.127-0.202-0.087-0.377-0.208-0.523-0.363-0.144-0.156-0.256-0.34-0.333-0.553s-0.117-0.447-0.117-0.7v-0.14c0-0.293 0.043-0.554 0.13-0.783 0.087-0.231 0.204-0.427 0.353-0.587s0.318-0.281 0.507-0.363 0.384-0.123 0.587-0.123c0.258 0 0.48 0.044 0.667 0.133 0.189 0.089 0.343 0.213 0.463 0.373 0.12 0.158 0.209 0.344 0.267 0.56 0.058 0.213 0.087 0.447 0.087 0.7v0.277h-2.693v-0.503h2.077v-0.047c-0.010-0.17-0.046-0.329-0.104-0.477l0.004 0.010c-0.056-0.151-0.144-0.276-0.267-0.373s-0.289-0.147-0.5-0.147c-0.14 0-0.269 0.030-0.387 0.090-0.118 0.058-0.219 0.144-0.303 0.26s-0.15 0.257-0.197 0.423-0.070 0.359-0.070 0.577v0.14c0 0.171 0.023 0.332 0.070 0.483 0.049 0.149 0.119 0.28 0.21 0.393 0.091 0.111 0.203 0.201 0.331 0.264l0.006 0.003c0.133 0.064 0.284 0.097 0.453 0.097 0.218 0 0.402-0.044 0.553-0.133s0.283-0.208 0.397-0.357l0.373 0.297c-0.078 0.118-0.177 0.23-0.297 0.337s-0.268 0.193-0.443 0.26c-0.173 0.067-0.379 0.1-0.617 0.1z"></path>
    </symbol>
    <symbol id="icon-video-button" viewBox="0 0 32 32">
      <path d="M22.809 15.271c-0.019 0.197-0.138 0.412-0.414 0.631-2.703 2.145-5.406 4.29-8.109 6.434-0.577 0.458-1.947 0.565-1.947-0.513v-11.906c0-0.975 1.47-1.215 2.058-0.818l8.109 5.472c0.31 0.209 0.377 0.459 0.302 0.7zM32 18.654c-0.857 20.541-35.471 16.286-31.715-5.337 1.576-9.073 9.11-13.845 17.388-13.27 9.318 0.647 14.158 9.123 14.326 18.471 0 0.024-0.015 0.043-0.018 0.066 0.003 0.025 0.020 0.042 0.019 0.070zM30.263 18.92c-0.141-6.617-2.487-13.763-8.542-16.608-8.024-3.77-17.479 0.676-19.518 9.838-1.824 8.194 2.232 15.459 9.654 18.087 7.911 2.801 17.973-1.607 18.406-11.318z"></path>
    </symbol>
    <symbol id="icon-Learn-more11" viewBox="0 0 197 32">
      <path d="M17.769 26.519v3.019h-14v-3.019h14zM4.5 1.538v28h-3.712v-28h3.712zM30.115 29.923c-1.449 0-2.763-0.243-3.942-0.731-1.167-0.5-2.173-1.199-3.019-2.096-0.833-0.897-1.474-1.962-1.923-3.192s-0.673-2.577-0.673-4.038v-0.808c0-1.692 0.25-3.199 0.75-4.519 0.5-1.333 1.18-2.462 2.038-3.385s1.833-1.622 2.923-2.096c1.090-0.474 2.218-0.712 3.385-0.712 1.487 0 2.769 0.256 3.846 0.769 1.090 0.513 1.981 1.231 2.673 2.154 0.692 0.91 1.205 1.987 1.538 3.231 0.333 1.231 0.5 2.577 0.5 4.038v1.596h-15.538v-2.904h11.981v-0.269c-0.051-0.923-0.243-1.82-0.577-2.692-0.321-0.872-0.833-1.59-1.538-2.154s-1.667-0.846-2.885-0.846c-0.808 0-1.551 0.173-2.231 0.519-0.679 0.333-1.263 0.833-1.75 1.5s-0.865 1.481-1.135 2.442c-0.269 0.962-0.404 2.071-0.404 3.327v0.808c0 0.987 0.135 1.917 0.404 2.788 0.282 0.859 0.686 1.615 1.211 2.269 0.539 0.654 1.186 1.167 1.942 1.538 0.769 0.372 1.641 0.558 2.615 0.558 1.256 0 2.321-0.256 3.192-0.769s1.634-1.199 2.288-2.058l2.154 1.711c-0.449 0.68-1.019 1.327-1.712 1.942s-1.545 1.115-2.558 1.5c-1 0.384-2.186 0.577-3.558 0.577zM54.635 25.981v-10.712c0-0.821-0.167-1.532-0.5-2.135-0.321-0.615-0.808-1.090-1.462-1.423s-1.461-0.5-2.423-0.5c-0.897 0-1.686 0.154-2.366 0.462-0.667 0.308-1.192 0.712-1.577 1.212-0.372 0.5-0.558 1.038-0.558 1.615h-3.558c0-0.744 0.193-1.481 0.577-2.212s0.936-1.391 1.654-1.981c0.731-0.603 1.602-1.077 2.615-1.423 1.025-0.359 2.167-0.539 3.423-0.539 1.513 0 2.846 0.256 4 0.769 1.167 0.513 2.077 1.288 2.731 2.327 0.667 1.026 1 2.314 1 3.865v9.692c0 0.692 0.058 1.43 0.173 2.212 0.128 0.782 0.314 1.455 0.558 2.019v0.308h-3.712c-0.179-0.41-0.321-0.955-0.423-1.635-0.103-0.692-0.154-1.333-0.154-1.923zM55.25 16.923l0.038 2.5h-3.596c-1.013 0-1.917 0.083-2.712 0.25-0.795 0.154-1.461 0.391-2 0.712s-0.949 0.724-1.231 1.212c-0.282 0.474-0.423 1.032-0.423 1.673 0 0.654 0.147 1.25 0.442 1.788s0.737 0.968 1.327 1.288c0.603 0.308 1.34 0.462 2.211 0.462 1.090 0 2.051-0.231 2.885-0.692s1.494-1.026 1.981-1.692c0.5-0.667 0.769-1.314 0.808-1.942l1.519 1.712c-0.090 0.539-0.333 1.135-0.731 1.788s-0.929 1.282-1.596 1.885c-0.654 0.59-1.436 1.083-2.346 1.481-0.897 0.384-1.91 0.577-3.039 0.577-1.41 0-2.647-0.275-3.712-0.827-1.051-0.551-1.872-1.288-2.462-2.211-0.577-0.936-0.865-1.981-0.865-3.135 0-1.115 0.218-2.096 0.654-2.942 0.436-0.859 1.064-1.57 1.885-2.135 0.82-0.577 1.808-1.013 2.961-1.308s2.442-0.442 3.865-0.442h4.135zM67.346 12v17.538h-3.558v-20.808h3.461l0.096 3.269zM73.846 8.615l-0.019 3.308c-0.295-0.064-0.577-0.103-0.846-0.115-0.256-0.026-0.551-0.038-0.884-0.038-0.821 0-1.545 0.128-2.173 0.385s-1.16 0.615-1.596 1.077-0.782 1.013-1.039 1.654c-0.243 0.628-0.404 1.32-0.481 2.077l-1 0.577c0-1.256 0.122-2.436 0.365-3.538 0.257-1.103 0.647-2.077 1.173-2.923 0.526-0.859 1.192-1.526 2-2 0.82-0.487 1.795-0.731 2.923-0.731 0.256 0 0.551 0.032 0.885 0.096 0.333 0.051 0.564 0.109 0.692 0.173zM80.692 13.173v16.365h-3.558v-20.808h3.365l0.192 4.442zM79.846 18.346l-1.481-0.058c0.013-1.423 0.225-2.737 0.635-3.942 0.41-1.218 0.987-2.276 1.731-3.173s1.628-1.59 2.654-2.077c1.039-0.5 2.186-0.75 3.442-0.75 1.026 0 1.949 0.141 2.769 0.423 0.821 0.269 1.519 0.705 2.096 1.308 0.59 0.603 1.039 1.385 1.346 2.346 0.308 0.949 0.462 2.109 0.462 3.481v13.635h-3.577v-13.673c0-1.090-0.16-1.962-0.481-2.615-0.32-0.667-0.788-1.147-1.404-1.442-0.615-0.308-1.372-0.462-2.269-0.462-0.885 0-1.693 0.186-2.423 0.558-0.718 0.372-1.34 0.885-1.865 1.538-0.513 0.654-0.917 1.404-1.212 2.25-0.282 0.833-0.423 1.718-0.423 2.654zM112.211 12.865v16.673h-3.577v-20.808h3.385l0.192 4.135zM111.481 18.346l-1.654-0.058c0.013-1.423 0.199-2.737 0.558-3.942 0.359-1.218 0.891-2.276 1.596-3.173s1.583-1.59 2.635-2.077c1.051-0.5 2.269-0.75 3.654-0.75 0.974 0 1.872 0.141 2.692 0.423 0.821 0.269 1.532 0.699 2.135 1.288s1.071 1.346 1.404 2.269c0.333 0.923 0.5 2.038 0.5 3.346v13.865h-3.558v-13.692c0-1.090-0.186-1.962-0.558-2.615-0.359-0.654-0.872-1.128-1.538-1.423-0.667-0.308-1.449-0.462-2.346-0.462-1.051 0-1.929 0.186-2.635 0.558s-1.269 0.885-1.692 1.538c-0.423 0.654-0.731 1.404-0.923 2.25-0.179 0.833-0.269 1.718-0.269 2.654zM124.961 16.385l-2.385 0.731c0.013-1.141 0.199-2.237 0.558-3.288 0.372-1.051 0.904-1.987 1.596-2.808 0.705-0.82 1.57-1.468 2.596-1.942 1.025-0.487 2.199-0.731 3.519-0.731 1.116 0 2.103 0.147 2.962 0.442 0.872 0.295 1.602 0.75 2.192 1.365 0.603 0.603 1.058 1.378 1.365 2.327s0.462 2.077 0.462 3.385v13.673h-3.577v-13.712c0-1.167-0.186-2.071-0.558-2.712-0.359-0.654-0.872-1.109-1.538-1.365-0.654-0.269-1.436-0.404-2.346-0.404-0.782 0-1.474 0.135-2.077 0.404s-1.109 0.641-1.519 1.115c-0.41 0.462-0.724 0.994-0.942 1.596-0.205 0.603-0.308 1.244-0.308 1.923zM142.269 19.365v-0.442c0-1.5 0.218-2.891 0.654-4.173 0.436-1.295 1.064-2.417 1.885-3.365 0.821-0.962 1.814-1.705 2.981-2.231 1.167-0.538 2.474-0.808 3.923-0.808 1.462 0 2.776 0.269 3.942 0.808 1.179 0.526 2.179 1.269 3 2.231 0.833 0.949 1.468 2.071 1.904 3.365 0.436 1.282 0.654 2.673 0.654 4.173v0.442c0 1.5-0.218 2.891-0.654 4.173s-1.071 2.404-1.904 3.365c-0.82 0.949-1.814 1.692-2.981 2.231-1.154 0.526-2.462 0.788-3.923 0.788s-2.776-0.263-3.942-0.788c-1.167-0.538-2.167-1.282-3-2.231-0.82-0.961-1.449-2.083-1.885-3.365s-0.654-2.673-0.654-4.173zM145.827 18.923v0.442c0 1.038 0.122 2.019 0.365 2.942 0.244 0.91 0.609 1.718 1.096 2.423 0.5 0.705 1.122 1.263 1.866 1.673 0.743 0.397 1.609 0.596 2.596 0.596 0.975 0 1.827-0.199 2.558-0.596 0.744-0.41 1.359-0.968 1.846-1.673s0.853-1.513 1.096-2.423c0.256-0.923 0.385-1.904 0.385-2.942v-0.442c0-1.026-0.128-1.994-0.385-2.904-0.243-0.923-0.615-1.737-1.115-2.442-0.487-0.718-1.103-1.282-1.846-1.692-0.731-0.41-1.59-0.615-2.577-0.615-0.974 0-1.833 0.205-2.577 0.615-0.731 0.41-1.346 0.974-1.846 1.692-0.487 0.705-0.852 1.519-1.096 2.442-0.243 0.91-0.365 1.878-0.365 2.904zM169.231 12v17.538h-3.558v-20.808h3.461l0.096 3.269zM175.731 8.615l-0.019 3.308c-0.295-0.064-0.577-0.103-0.846-0.115-0.256-0.026-0.551-0.038-0.885-0.038-0.82 0-1.545 0.128-2.173 0.385s-1.16 0.615-1.596 1.077c-0.436 0.462-0.782 1.013-1.038 1.654-0.244 0.628-0.404 1.32-0.481 2.077l-1 0.577c0-1.256 0.122-2.436 0.365-3.538 0.256-1.103 0.648-2.077 1.173-2.923 0.526-0.859 1.192-1.526 2-2 0.82-0.487 1.795-0.731 2.923-0.731 0.256 0 0.551 0.032 0.885 0.096 0.333 0.051 0.564 0.109 0.692 0.173zM187.269 29.923c-1.449 0-2.763-0.243-3.942-0.731-1.167-0.5-2.173-1.199-3.019-2.096-0.833-0.897-1.474-1.962-1.923-3.192s-0.673-2.577-0.673-4.038v-0.808c0-1.692 0.25-3.199 0.75-4.519 0.5-1.333 1.18-2.462 2.038-3.385s1.833-1.622 2.923-2.096 2.218-0.712 3.385-0.712c1.487 0 2.769 0.256 3.846 0.769 1.090 0.513 1.981 1.231 2.673 2.154 0.692 0.91 1.205 1.987 1.538 3.231 0.333 1.231 0.5 2.577 0.5 4.038v1.596h-15.538v-2.904h11.981v-0.269c-0.051-0.923-0.244-1.82-0.577-2.692-0.321-0.872-0.833-1.59-1.538-2.154s-1.667-0.846-2.885-0.846c-0.808 0-1.551 0.173-2.231 0.519-0.68 0.333-1.263 0.833-1.75 1.5s-0.865 1.481-1.135 2.442-0.404 2.071-0.404 3.327v0.808c0 0.987 0.135 1.917 0.404 2.788 0.282 0.859 0.686 1.615 1.212 2.269 0.538 0.654 1.186 1.167 1.942 1.538 0.769 0.372 1.641 0.558 2.615 0.558 1.257 0 2.321-0.256 3.192-0.769s1.635-1.199 2.288-2.058l2.154 1.711c-0.449 0.68-1.019 1.327-1.712 1.942s-1.545 1.115-2.558 1.5c-1 0.384-2.186 0.577-3.558 0.577z"></path>
    </symbol>
    <symbol id="icon-vector2" viewBox="0 0 42 32">
      <path d="M0.098 13.567s-1.927-7.847 11.323-12.616 38.908 9.434 27.705 19.715c-11.203 10.281-17.346 14.203-27.705 9.116s-11.323-16.214-11.323-16.214z"></path>
    </symbol>
  </defs>
</svg>
