<svg width="96" height="80" viewBox="0 0 96 80" fill="none" xmlns="http://www.w3.org/2000/svg">
<path d="M68.3162 36.7568C67.7176 35.3668 66.6701 33.668 64.5751 32.278C63.378 31.5058 58.7391 30.8881 58.5895 35.2124C58.5895 35.2124 56.6441 35.5213 56.7938 36.9112C56.7938 36.9112 55.5966 41.0811 61.283 40.6178C61.283 40.6178 62.3305 48.4942 63.2283 50.1931C63.2283 50.1931 63.6773 51.7375 63.8269 53.2819H66.2212L66.3708 50.1931C66.3708 50.1931 67.7176 51.1197 68.7651 53.2819H72.2068C72.0572 52.0464 71.9076 50.9653 71.6083 50.1931C71.6083 50.1931 76.6961 50.1931 78.4918 47.8765C78.4918 47.8765 79.9882 50.8109 81.7839 50.9653V53.4363H84.1782C84.3278 52.973 84.3278 52.5097 84.4774 51.7375C84.4774 51.7375 85.3753 52.2008 85.8242 53.4363H87.9192C87.6199 52.3553 84.9264 42.3166 84.0285 41.5444C84.0285 41.5444 85.3753 41.39 85.8242 43.0888C85.8242 43.0888 86.5724 46.641 88.0688 46.4865C88.0688 46.4865 89.1163 44.1699 87.3206 41.2356C87.3206 41.2356 86.5724 39.0734 82.6817 39.3823L71.4586 39.0734C69.9622 38.7645 68.9147 37.8379 68.3162 36.7568Z" fill="#181817"/>
<path d="M54.6989 24.8647C55.5967 23.6292 55.4471 21.7759 54.2499 20.6948C53.0528 19.7682 51.2571 19.9226 50.2096 21.1581C47.3664 24.8647 42.2786 25.4824 38.6872 23.938L36.7419 29.4979C42.8772 31.9689 50.3593 30.7334 54.6989 24.8647Z" fill="#181817"/>
<path d="M29.2598 15.1351C33.3094 15.1351 36.5922 11.747 36.5922 7.56757C36.5922 3.38812 33.3094 0 29.2598 0C25.2102 0 21.9273 3.38812 21.9273 7.56757C21.9273 11.747 25.2102 15.1351 29.2598 15.1351Z" fill="#181817"/>
<path d="M33.5994 54.9806L27.3144 52.3552L31.0555 41.3899C22.6755 36.6023 19.6827 29.0347 19.533 28.5714C18.6352 26.2548 19.6827 23.7837 21.9273 22.8571C24.1719 21.9304 26.5662 23.0115 27.4641 25.3281C27.6137 25.637 29.4094 29.6525 34.0483 32.8957L36.8915 24.8648C37.1908 23.9382 37.0411 23.0115 36.4425 22.2393C31.0555 16.0617 24.7705 13.7451 17.887 15.9073C15.9417 16.525 14.5949 18.0694 14.146 20.0772L8.16029 52.2007C8.16029 52.3552 8.16029 52.3552 8.16029 52.5096C8.16029 52.664 8.16029 52.9729 8.16029 53.1274L8.45957 67.7992L5.16746 67.027C2.92283 66.5637 0.528568 68.1081 0.0796431 70.4247C-0.369282 72.7413 1.12713 75.2123 3.37176 75.6756L11.9013 77.5289C13.2481 77.8378 14.4452 77.5289 15.4927 76.6023C16.5402 75.6756 17.1388 74.4401 16.9891 73.0501L16.6899 57.6061L27.6137 62.0849V75.5212C27.6137 77.9922 29.559 80 31.9533 80C34.3476 80 36.2929 77.9922 36.2929 75.5212V59.1505C36.4425 57.2972 35.2454 55.7528 33.5994 54.9806Z" fill="#181817"/>
<path d="M45.1217 38.1467C30.9058 37.0656 26.4165 26.4093 26.2669 25.9459C25.6683 24.4015 24.0223 23.7838 22.5259 24.4015C21.0295 25.0193 20.4309 26.7181 21.0295 28.2625C21.3287 28.8803 27.0151 42.7799 44.8225 44.1699C46.4685 44.3243 47.8153 43.0888 47.8153 41.39C47.8153 39.6911 46.7678 38.3011 45.1217 38.1467Z" fill="#181817"/>
<path d="M70.7104 18.0695C67.7176 18.6873 65.473 21.4672 65.473 24.7104H78.7911C78.7911 21.1583 76.2472 18.3784 72.955 17.9151C68.4658 12.8185 61.283 14.8263 55.5966 19.9228C55.8959 20.2317 56.1952 20.695 56.4945 21.1583C60.5348 17.2973 66.0715 14.6718 70.7104 18.0695Z" fill="#181817"/>
<path d="M93.4561 54.6718H51.4068C50.2097 54.6718 49.1622 55.7529 49.1622 56.9884C49.1622 58.2239 50.2097 59.305 51.4068 59.305H51.8557V63.166C51.8557 69.1892 56.6442 74.1313 62.4803 74.1313H82.6819C88.5179 74.1313 93.3064 69.1892 93.3064 63.166V59.305H93.7554C94.9525 59.305 96 58.2239 96 56.9884C95.7007 55.5984 94.6532 54.6718 93.4561 54.6718Z" fill="#181817"/>
<path d="M66.6701 27.7992L66.8197 26.4092C66.8197 25.9459 66.6701 25.637 66.2212 25.637C65.7723 25.637 65.473 25.7915 65.473 26.2548L65.3233 27.6448C65.3233 28.1081 65.473 28.417 65.9219 28.417C66.2212 28.417 66.5205 28.1081 66.6701 27.7992Z" fill="#181817"/>
<path d="M64.8744 29.6525L64.7248 31.0425C64.7248 31.5058 64.8744 31.8147 65.3234 31.8147C65.7723 31.8147 66.0716 31.6602 66.0716 31.1969L66.2212 29.807C66.2212 29.3436 66.0716 29.0348 65.6226 29.0348C65.3234 29.0348 65.0241 29.3436 64.8744 29.6525Z" fill="#181817"/>
<path d="M69.9621 28.417C70.411 28.417 70.7103 28.1081 70.7103 27.6448V26.1003C70.7103 25.637 70.411 25.3281 69.9621 25.3281C69.5132 25.3281 69.2139 25.637 69.2139 26.1003V27.6448C69.2139 27.9536 69.6628 28.417 69.9621 28.417Z" fill="#181817"/>
<path d="M69.0644 31.1968C69.0644 31.6601 69.3636 31.969 69.8126 31.969C70.2615 31.969 70.5608 31.6601 70.5608 31.1968V29.6524C70.5608 29.1891 70.2615 28.8802 69.8126 28.8802C69.3636 28.8802 69.0644 29.1891 69.0644 29.6524V31.1968Z" fill="#181817"/>
<path d="M74.0026 25.4827C73.5537 25.4827 73.2544 25.7916 73.2544 26.2549V27.7993C73.2544 28.2626 73.5537 28.5715 74.0026 28.5715C74.4515 28.5715 74.7508 28.2626 74.7508 27.7993V26.2549C74.7508 25.7916 74.4515 25.4827 74.0026 25.4827Z" fill="#181817"/>
<path d="M73.5537 29.807V31.3514C73.5537 31.8147 73.853 32.1236 74.3019 32.1236C74.7509 32.1236 75.0501 31.8147 75.0501 31.3514V29.807C75.0501 29.3436 74.7509 29.0348 74.3019 29.0348C73.7034 29.0348 73.4041 29.3436 73.5537 29.807Z" fill="#181817"/>
<path d="M77.8932 25.4827C77.4443 25.4827 77.2946 25.946 77.2946 26.2549L77.4443 27.6448C77.4443 27.9537 77.7435 28.2626 78.1925 28.2626C78.6414 28.2626 78.9407 27.7993 78.9407 27.3359L78.6414 26.1004C78.6414 25.6371 78.1925 25.3282 77.8932 25.4827Z" fill="#181817"/>
<path d="M77.7438 29.9614L77.8934 31.3514C77.8934 31.6602 78.3423 31.9691 78.6416 31.9691C79.0905 31.9691 79.3898 31.5058 79.2402 31.1969V29.6525C79.2402 29.1892 78.7913 29.0348 78.492 29.0348C78.0431 29.1892 77.7438 29.4981 77.7438 29.9614Z" fill="#181817"/>
</svg>
